<svg width="231" height="117" viewBox="0 0 231 117" fill="none" xmlns="http://www.w3.org/2000/svg">
<path d="M71.706 89.09C70.77 89.09 69.93 88.886 69.186 88.478C68.454 88.07 67.878 87.5 67.458 86.768C67.038 86.024 66.828 85.19 66.828 84.266C66.828 83.342 67.038 82.514 67.458 81.782C67.878 81.05 68.454 80.48 69.186 80.072C69.93 79.664 70.77 79.46 71.706 79.46C72.522 79.46 73.248 79.622 73.884 79.946C74.532 80.258 75.042 80.72 75.414 81.332L74.46 81.98C74.148 81.512 73.752 81.164 73.272 80.936C72.792 80.696 72.27 80.576 71.706 80.576C71.022 80.576 70.404 80.732 69.852 81.044C69.312 81.344 68.886 81.776 68.574 82.34C68.274 82.904 68.124 83.546 68.124 84.266C68.124 84.998 68.274 85.646 68.574 86.21C68.886 86.762 69.312 87.194 69.852 87.506C70.404 87.806 71.022 87.956 71.706 87.956C72.27 87.956 72.792 87.842 73.272 87.614C73.752 87.386 74.148 87.038 74.46 86.57L75.414 87.218C75.042 87.83 74.532 88.298 73.884 88.622C73.236 88.934 72.51 89.09 71.706 89.09ZM81.6364 89.09C80.7244 89.09 79.9024 88.886 79.1704 88.478C78.4384 88.058 77.8624 87.482 77.4424 86.75C77.0224 86.018 76.8124 85.19 76.8124 84.266C76.8124 83.342 77.0224 82.514 77.4424 81.782C77.8624 81.05 78.4384 80.48 79.1704 80.072C79.9024 79.664 80.7244 79.46 81.6364 79.46C82.5484 79.46 83.3704 79.664 84.1024 80.072C84.8344 80.48 85.4044 81.05 85.8124 81.782C86.2324 82.514 86.4424 83.342 86.4424 84.266C86.4424 85.19 86.2324 86.018 85.8124 86.75C85.4044 87.482 84.8344 88.058 84.1024 88.478C83.3704 88.886 82.5484 89.09 81.6364 89.09ZM81.6364 87.956C82.3084 87.956 82.9084 87.806 83.4364 87.506C83.9764 87.194 84.3964 86.756 84.6964 86.192C84.9964 85.628 85.1464 84.986 85.1464 84.266C85.1464 83.546 84.9964 82.904 84.6964 82.34C84.3964 81.776 83.9764 81.344 83.4364 81.044C82.9084 80.732 82.3084 80.576 81.6364 80.576C80.9644 80.576 80.3584 80.732 79.8184 81.044C79.2904 81.344 78.8704 81.776 78.5584 82.34C78.2584 82.904 78.1084 83.546 78.1084 84.266C78.1084 84.986 78.2584 85.628 78.5584 86.192C78.8704 86.756 79.2904 87.194 79.8184 87.506C80.3584 87.806 80.9644 87.956 81.6364 87.956ZM100.86 79.46C102.048 79.46 102.978 79.802 103.65 80.486C104.334 81.17 104.676 82.178 104.676 83.51V89H103.398V83.636C103.398 82.652 103.158 81.902 102.678 81.386C102.21 80.87 101.544 80.612 100.68 80.612C99.6955 80.612 98.9215 80.918 98.3575 81.53C97.7935 82.13 97.5115 82.964 97.5115 84.032V89H96.2335V83.636C96.2335 82.652 95.9935 81.902 95.5135 81.386C95.0455 80.87 94.3735 80.612 93.4975 80.612C92.5255 80.612 91.7515 80.918 91.1755 81.53C90.6115 82.13 90.3295 82.964 90.3295 84.032V89H89.0515V79.532H90.2755V81.26C90.6115 80.684 91.0795 80.24 91.6795 79.928C92.2795 79.616 92.9695 79.46 93.7495 79.46C94.5415 79.46 95.2255 79.628 95.8015 79.964C96.3895 80.3 96.8275 80.798 97.1155 81.458C97.4635 80.834 97.9615 80.348 98.6095 80C99.2695 79.64 100.02 79.46 100.86 79.46ZM113.019 79.46C113.907 79.46 114.711 79.664 115.431 80.072C116.151 80.468 116.715 81.032 117.123 81.764C117.531 82.496 117.735 83.33 117.735 84.266C117.735 85.214 117.531 86.054 117.123 86.786C116.715 87.518 116.151 88.088 115.431 88.496C114.723 88.892 113.919 89.09 113.019 89.09C112.251 89.09 111.555 88.934 110.931 88.622C110.319 88.298 109.815 87.83 109.419 87.218V92.492H108.141V79.532H109.365V81.404C109.749 80.78 110.253 80.3 110.877 79.964C111.513 79.628 112.227 79.46 113.019 79.46ZM112.929 87.956C113.589 87.956 114.189 87.806 114.729 87.506C115.269 87.194 115.689 86.756 115.989 86.192C116.301 85.628 116.457 84.986 116.457 84.266C116.457 83.546 116.301 82.91 115.989 82.358C115.689 81.794 115.269 81.356 114.729 81.044C114.189 80.732 113.589 80.576 112.929 80.576C112.257 80.576 111.651 80.732 111.111 81.044C110.583 81.356 110.163 81.794 109.851 82.358C109.551 82.91 109.401 83.546 109.401 84.266C109.401 84.986 109.551 85.628 109.851 86.192C110.163 86.756 110.583 87.194 111.111 87.506C111.651 87.806 112.257 87.956 112.929 87.956ZM123.6 79.46C124.836 79.46 125.784 79.772 126.444 80.396C127.104 81.008 127.434 81.92 127.434 83.132V89H126.21V87.524C125.922 88.016 125.496 88.4 124.932 88.676C124.38 88.952 123.72 89.09 122.952 89.09C121.896 89.09 121.056 88.838 120.432 88.334C119.808 87.83 119.496 87.164 119.496 86.336C119.496 85.532 119.784 84.884 120.36 84.392C120.948 83.9 121.878 83.654 123.15 83.654H126.156V83.078C126.156 82.262 125.928 81.644 125.472 81.224C125.016 80.792 124.35 80.576 123.474 80.576C122.874 80.576 122.298 80.678 121.746 80.882C121.194 81.074 120.72 81.344 120.324 81.692L119.748 80.738C120.228 80.33 120.804 80.018 121.476 79.802C122.148 79.574 122.856 79.46 123.6 79.46ZM123.15 88.082C123.87 88.082 124.488 87.92 125.004 87.596C125.52 87.26 125.904 86.78 126.156 86.156V84.608H123.186C121.566 84.608 120.756 85.172 120.756 86.3C120.756 86.852 120.966 87.29 121.386 87.614C121.806 87.926 122.394 88.082 123.15 88.082ZM135.729 79.46C136.917 79.46 137.859 79.808 138.555 80.504C139.263 81.188 139.617 82.19 139.617 83.51V89H138.339V83.636C138.339 82.652 138.093 81.902 137.601 81.386C137.109 80.87 136.407 80.612 135.495 80.612C134.475 80.612 133.665 80.918 133.065 81.53C132.477 82.13 132.183 82.964 132.183 84.032V89H130.905V79.532H132.129V81.278C132.477 80.702 132.957 80.258 133.569 79.946C134.193 79.622 134.913 79.46 135.729 79.46ZM150.867 79.532L146.133 90.134C145.749 91.022 145.305 91.652 144.801 92.024C144.297 92.396 143.691 92.582 142.983 92.582C142.527 92.582 142.101 92.51 141.705 92.366C141.309 92.222 140.967 92.006 140.679 91.718L141.273 90.764C141.753 91.244 142.329 91.484 143.001 91.484C143.433 91.484 143.799 91.364 144.099 91.124C144.411 90.884 144.699 90.476 144.963 89.9L145.377 88.982L141.147 79.532H142.479L146.043 87.578L149.607 79.532H150.867Z" fill="white"/>
<path d="M69.78 69V43.8H73.38V65.868H87.024V69H69.78ZM91.155 69V43.8H94.755V69H91.155ZM102.3 69V43.8H112.128C114.336 43.8 116.22 44.148 117.78 44.844C119.34 45.54 120.54 46.548 121.38 47.868C122.22 49.188 122.64 50.76 122.64 52.584C122.64 54.408 122.22 55.98 121.38 57.3C120.54 58.596 119.34 59.604 117.78 60.324C116.22 61.02 114.336 61.368 112.128 61.368H104.28L105.9 59.676V69H102.3ZM105.9 60.036L104.28 58.236H112.02C114.324 58.236 116.064 57.744 117.24 56.76C118.44 55.776 119.04 54.384 119.04 52.584C119.04 50.784 118.44 49.392 117.24 48.408C116.064 47.424 114.324 46.932 112.02 46.932H104.28L105.9 45.132V60.036ZM139.656 69.288C137.736 69.288 135.948 68.964 134.292 68.316C132.66 67.668 131.244 66.768 130.044 65.616C128.844 64.44 127.908 63.072 127.236 61.512C126.564 59.952 126.228 58.248 126.228 56.4C126.228 54.552 126.564 52.848 127.236 51.288C127.908 49.728 128.844 48.372 130.044 47.22C131.244 46.044 132.66 45.132 134.292 44.484C135.924 43.836 137.712 43.512 139.656 43.512C141.576 43.512 143.34 43.836 144.948 44.484C146.58 45.108 147.996 46.008 149.196 47.184C150.42 48.336 151.356 49.692 152.004 51.252C152.676 52.812 153.012 54.528 153.012 56.4C153.012 58.272 152.676 59.988 152.004 61.548C151.356 63.108 150.42 64.476 149.196 65.652C147.996 66.804 146.58 67.704 144.948 68.352C143.34 68.976 141.576 69.288 139.656 69.288ZM139.656 66.084C141.048 66.084 142.332 65.844 143.508 65.364C144.708 64.884 145.74 64.212 146.604 63.348C147.492 62.46 148.176 61.428 148.656 60.252C149.16 59.076 149.412 57.792 149.412 56.4C149.412 55.008 149.16 53.724 148.656 52.548C148.176 51.372 147.492 50.352 146.604 49.488C145.74 48.6 144.708 47.916 143.508 47.436C142.332 46.956 141.048 46.716 139.656 46.716C138.24 46.716 136.932 46.956 135.732 47.436C134.556 47.916 133.524 48.6 132.636 49.488C131.748 50.352 131.052 51.372 130.548 52.548C130.068 53.724 129.828 55.008 129.828 56.4C129.828 57.792 130.068 59.076 130.548 60.252C131.052 61.428 131.748 62.46 132.636 63.348C133.524 64.212 134.556 64.884 135.732 65.364C136.932 65.844 138.24 66.084 139.656 66.084ZM158.514 69V43.8H169.134C171.822 43.8 174.186 44.328 176.226 45.384C178.29 46.44 179.886 47.916 181.014 49.812C182.166 51.708 182.742 53.904 182.742 56.4C182.742 58.896 182.166 61.092 181.014 62.988C179.886 64.884 178.29 66.36 176.226 67.416C174.186 68.472 171.822 69 169.134 69H158.514ZM162.114 65.868H168.918C171.006 65.868 172.806 65.472 174.318 64.68C175.854 63.888 177.042 62.784 177.882 61.368C178.722 59.928 179.142 58.272 179.142 56.4C179.142 54.504 178.722 52.848 177.882 51.432C177.042 50.016 175.854 48.912 174.318 48.12C172.806 47.328 171.006 46.932 168.918 46.932H162.114V65.868ZM184.089 69L195.501 43.8H199.065L210.513 69H206.733L196.545 45.816H197.985L187.797 69H184.089ZM188.949 62.7L189.921 59.82H204.105L205.149 62.7H188.949ZM218.011 69V46.932H209.371V43.8H230.215V46.932H221.575V69H218.011Z" fill="white"/>
<path d="M12.768 25.8H14.688V91.176H54.72V93H12.768V25.8Z" fill="white"/>
<path d="M53.04 43.368H54.96V93H53.04V43.368ZM54 29.64C53.296 29.64 52.688 29.384 52.176 28.872C51.728 28.36 51.504 27.784 51.504 27.144C51.504 26.44 51.728 25.864 52.176 25.416C52.688 24.904 53.296 24.648 54 24.648C54.64 24.648 55.216 24.904 55.728 25.416C56.24 25.864 56.496 26.44 56.496 27.144C56.496 27.784 56.24 28.36 55.728 28.872C55.216 29.384 54.64 29.64 54 29.64Z" fill="white"/>
</svg>
